<svg xmlns="http://www.w3.org/2000/svg" viewBox="0 0 560 560" width="560" height="560">
  <defs>
    <radialGradient id="bgGrad" cx="50%" cy="45%" r="60%" gradientUnits="objectBoundingBox">
      <stop offset="0%" stop-color="#111a4a"/>
      <stop offset="100%" stop-color="#070c24"/>
    </radialGradient>
    <filter id="faceGlow" x="-20%" y="-20%" width="140%" height="140%">
      <feGaussianBlur stdDeviation="2.5" result="blur"/>
      <feComposite in="SourceGraphic" in2="blur" operator="over"/>
    </filter>
    <filter id="softGlow" x="-30%" y="-30%" width="160%" height="160%">
      <feGaussianBlur stdDeviation="4" result="blur"/>
      <feComposite in="SourceGraphic" in2="blur" operator="over"/>
    </filter>
    <filter id="eyeGlow" x="-40%" y="-40%" width="180%" height="180%">
      <feGaussianBlur stdDeviation="3" result="blur1"/>
      <feComposite in="SourceGraphic" in2="blur1" operator="over"/>
    </filter>
    <radialGradient id="irisL" cx="50%" cy="45%" r="50%">
      <stop offset="0%" stop-color="#1e40af"/>
      <stop offset="50%" stop-color="#3b82f6"/>
      <stop offset="80%" stop-color="#818cf8"/>
      <stop offset="100%" stop-color="#1e3a8a"/>
    </radialGradient>
    <radialGradient id="irisR" cx="50%" cy="45%" r="50%">
      <stop offset="0%" stop-color="#1e40af"/>
      <stop offset="50%" stop-color="#3b82f6"/>
      <stop offset="80%" stop-color="#818cf8"/>
      <stop offset="100%" stop-color="#1e3a8a"/>
    </radialGradient>
    <linearGradient id="ringGrad" x1="0%" y1="0%" x2="100%" y2="100%">
      <stop offset="0%" stop-color="#c4b5fd" stop-opacity="0.8"/>
      <stop offset="50%" stop-color="#818cf8" stop-opacity="0.5"/>
      <stop offset="100%" stop-color="#c4b5fd" stop-opacity="0.0"/>
    </linearGradient>
  </defs>

  <!-- Background -->
  <rect width="560" height="560" fill="url(#bgGrad)"/>

  <!-- Faint background grid -->
  <g opacity="0.04" stroke="#818cf8" stroke-width="0.5">
    <line x1="0" y1="140" x2="560" y2="140"/>
    <line x1="0" y1="280" x2="560" y2="280"/>
    <line x1="0" y1="420" x2="560" y2="420"/>
    <line x1="140" y1="0" x2="140" y2="560"/>
    <line x1="280" y1="0" x2="280" y2="560"/>
    <line x1="420" y1="0" x2="420" y2="560"/>
  </g>

  <!-- Outer HUD dashed circle -->
  <circle cx="280" cy="265" r="220" fill="none" stroke="#4f46e5" stroke-width="1"
    stroke-dasharray="6 8" stroke-opacity="0.55">
    <animateTransform attributeName="transform" type="rotate"
      from="0 280 265" to="360 280 265" dur="30s" repeatCount="indefinite"/>
  </circle>

  <!-- Tick marks -->
  <g stroke="#a5b4fc" stroke-width="1.5" opacity="0.7">
    <line x1="42" y1="218" x2="56" y2="218"/>
    <line x1="504" y1="218" x2="518" y2="218"/>
    <line x1="280" y1="44" x2="280" y2="58"/>
    <line x1="280" y1="472" x2="280" y2="486"/>
  </g>

  <!-- Corner accent marks -->
  <g stroke="#818cf8" stroke-width="1" opacity="0.5">
    <line x1="124" y1="96" x2="134" y2="106"/>
    <line x1="436" y1="96" x2="426" y2="106"/>
    <line x1="124" y1="434" x2="134" y2="424"/>
    <line x1="436" y1="434" x2="426" y2="424"/>
  </g>

  <!-- Hair — swept right -->
  <g stroke="#c4b5fd" stroke-linecap="round" fill="none" opacity="0.85">
    <path d="M 240,80 C 255,55 290,48 340,62 C 380,74 410,82 430,86" stroke-width="1.2"/>
    <path d="M 245,76 C 262,50 298,43 348,57 C 390,70 418,78 438,83" stroke-width="1.0"/>
    <path d="M 250,73 C 268,47 304,40 355,54 C 397,67 424,75 442,80" stroke-width="0.8"/>
    <path d="M 255,70 C 272,46 310,38 360,52 C 402,65 430,74 448,78" stroke-width="0.7"/>
    <path d="M 210,92 C 225,68 255,56 305,58 C 345,60 380,68 420,80" stroke-width="1.1"/>
    <path d="M 200,105 C 218,78 248,65 298,67 C 338,69 375,75 415,87" stroke-width="1.0"/>
    <path d="M 195,118 C 214,90 242,77 292,79 C 332,81 368,88 408,98" stroke-width="0.9"/>
    <path d="M 192,128 C 210,100 238,87 286,88 C 326,89 362,96 400,108" stroke-width="0.8"/>
    <path d="M 190,138 C 208,112 234,98 282,99 C 320,100 358,106 395,118" stroke-width="0.7"/>
    <path d="M 265,67 C 278,44 312,36 365,49 C 408,62 436,72 452,76" stroke-width="0.6"/>
    <path d="M 270,65 C 284,42 318,34 370,47 C 414,60 440,70 455,74" stroke-width="0.5"/>
    <path d="M 188,152 C 205,130 228,116 272,116 C 308,116 342,122 378,133" stroke-width="0.6"/>
    <path d="M 188,164 C 204,142 225,128 268,128 C 304,128 336,134 370,144" stroke-width="0.5"/>
  </g>

  <!-- Neck and shoulders -->
  <g stroke="#e0d7ff" stroke-width="1.4" fill="none" opacity="0.7">
    <line x1="248" y1="395" x2="230" y2="470"/>
    <line x1="312" y1="395" x2="330" y2="470"/>
    <path d="M 230,470 C 210,478 170,492 100,508 C 60,518 30,520 10,520" stroke-width="1.2"/>
    <path d="M 330,470 C 350,478 390,492 460,508 C 500,518 530,520 550,520" stroke-width="1.2"/>
  </g>

  <!-- Face outline glow pass -->
  <ellipse cx="280" cy="255" rx="138" ry="168" fill="none"
    stroke="#a78bfa" stroke-width="4" opacity="0.25" filter="url(#softGlow)"/>
  <!-- Face outline main line -->
  <ellipse cx="280" cy="255" rx="136" ry="166" fill="none"
    stroke="#ddd6fe" stroke-width="1.6" opacity="0.9" filter="url(#faceGlow)"/>

  <!-- Left eyebrow -->
  <g stroke="#c4b5fd" fill="none" stroke-linecap="round" opacity="0.9">
    <path d="M 210,182 C 220,174 234,170 252,172" stroke-width="1.8"/>
    <path d="M 211,185 C 221,177 235,173 252,175" stroke-width="1.2"/>
    <path d="M 212,188 C 222,180 236,176 252,178" stroke-width="0.8"/>
    <path d="M 213,191 C 222,183 236,179 251,181" stroke-width="0.5"/>
  </g>
  <!-- Right eyebrow -->
  <g stroke="#c4b5fd" fill="none" stroke-linecap="round" opacity="0.9">
    <path d="M 308,172 C 326,170 340,174 350,182" stroke-width="1.8"/>
    <path d="M 308,175 C 326,173 340,177 350,185" stroke-width="1.2"/>
    <path d="M 308,178 C 326,176 340,180 350,188" stroke-width="0.8"/>
    <path d="M 309,181 C 326,179 340,183 350,191" stroke-width="0.5"/>
  </g>

  <!-- Left eye -->
  <g filter="url(#eyeGlow)">
    <path d="M 200,218 C 210,205 225,198 233,197 C 241,196 252,198 262,205 C 268,209 270,213 268,218"
      fill="none" stroke="#e2e8f0" stroke-width="1.8" stroke-linecap="round"/>
    <path d="M 200,218 C 210,228 225,233 233,233 C 241,233 252,230 262,222 C 266,218 268,217 268,218"
      fill="none" stroke="#cbd5e1" stroke-width="1.2" stroke-linecap="round"/>
    <path d="M 200,218 C 210,204 225,196 234,195 C 242,194 253,197 263,204 C 269,208 271,213 269,218"
      fill="none" stroke="#818cf8" stroke-width="3" opacity="0.2" stroke-linecap="round"/>
    <circle cx="234" cy="215" r="13" fill="url(#irisL)" opacity="0.9"/>
    <circle cx="234" cy="215" r="6" fill="#0a0f2e"/>
    <circle cx="234" cy="215" r="13" fill="none" stroke="#93c5fd" stroke-width="0.8" opacity="0.6"/>
    <circle cx="239" cy="210" r="2.5" fill="white" opacity="0.7"/>
    <circle cx="229" cy="219" r="1.2" fill="white" opacity="0.3"/>
    <g stroke="#c4b5fd" stroke-width="1" stroke-linecap="round" opacity="0.8">
      <line x1="204" y1="215" x2="200" y2="209"/>
      <line x1="210" y1="208" x2="207" y2="202"/>
      <line x1="218" y1="203" x2="216" y2="197"/>
      <line x1="227" y1="200" x2="226" y2="194"/>
      <line x1="236" y1="200" x2="235" y2="194"/>
      <line x1="245" y1="202" x2="245" y2="196"/>
      <line x1="254" y1="207" x2="255" y2="201"/>
      <line x1="262" y1="213" x2="264" y2="208"/>
    </g>
    <g stroke="#94a3b8" stroke-width="0.7" stroke-linecap="round" opacity="0.5">
      <line x1="208" y1="224" x2="205" y2="228"/>
      <line x1="218" y1="230" x2="216" y2="235"/>
      <line x1="228" y1="233" x2="227" y2="238"/>
      <line x1="238" y1="232" x2="238" y2="237"/>
      <line x1="248" y1="228" x2="249" y2="233"/>
      <line x1="258" y1="222" x2="260" y2="226"/>
    </g>
  </g>

  <!-- Right eye -->
  <g filter="url(#eyeGlow)">
    <path d="M 292,218 C 290,213 292,209 298,205 C 308,198 319,196 327,197 C 335,198 350,205 360,218"
      fill="none" stroke="#e2e8f0" stroke-width="1.8" stroke-linecap="round"/>
    <path d="M 292,218 C 294,217 296,218 302,222 C 312,229 323,233 331,233 C 339,233 350,228 360,218"
      fill="none" stroke="#cbd5e1" stroke-width="1.2" stroke-linecap="round"/>
    <path d="M 291,218 C 289,213 291,208 297,204 C 307,197 319,195 327,196 C 336,197 351,204 361,218"
      fill="none" stroke="#818cf8" stroke-width="3" opacity="0.2" stroke-linecap="round"/>
    <circle cx="326" cy="215" r="13" fill="url(#irisR)" opacity="0.9"/>
    <circle cx="326" cy="215" r="6" fill="#0a0f2e"/>
    <circle cx="326" cy="215" r="13" fill="none" stroke="#93c5fd" stroke-width="0.8" opacity="0.6"/>
    <circle cx="331" cy="210" r="2.5" fill="white" opacity="0.7"/>
    <circle cx="321" cy="219" r="1.2" fill="white" opacity="0.3"/>
    <g stroke="#c4b5fd" stroke-width="1" stroke-linecap="round" opacity="0.8">
      <line x1="298" y1="213" x2="296" y2="208"/>
      <line x1="305" y1="207" x2="304" y2="201"/>
      <line x1="313" y1="202" x2="312" y2="196"/>
      <line x1="322" y1="200" x2="322" y2="194"/>
      <line x1="331" y1="200" x2="332" y2="194"/>
      <line x1="340" y1="202" x2="341" y2="197"/>
      <line x1="349" y1="208" x2="351" y2="202"/>
      <line x1="356" y1="215" x2="360" y2="209"/>
    </g>
    <g stroke="#94a3b8" stroke-width="0.7" stroke-linecap="round" opacity="0.5">
      <line x1="302" y1="222" x2="300" y2="226"/>
      <line x1="312" y1="228" x2="311" y2="233"/>
      <line x1="322" y1="232" x2="322" y2="237"/>
      <line x1="332" y1="232" x2="333" y2="237"/>
      <line x1="342" y1="228" x2="343" y2="233"/>
      <line x1="352" y1="222" x2="354" y2="226"/>
    </g>
  </g>

  <!-- Nose (minimal) -->
  <g stroke="#94a3b8" fill="none" stroke-linecap="round" opacity="0.6">
    <path d="M 266,308 C 263,312 262,316 264,319 C 266,322 270,323 274,320" stroke-width="1.2"/>
    <path d="M 294,308 C 297,312 298,316 296,319 C 294,322 290,323 286,320" stroke-width="1.2"/>
    <path d="M 272,320 C 276,322 284,322 288,320" stroke-width="1.0"/>
  </g>

  <!-- Lips -->
  <g fill="none" stroke-linecap="round">
    <path d="M 252,352 C 260,347 268,345 280,346 C 292,345 300,347 308,352"
      stroke="#e2d9f3" stroke-width="1.5"/>
    <path d="M 265,352 C 272,349 276,348 280,348 C 284,348 288,349 295,352"
      stroke="#c4b5fd" stroke-width="1.0" opacity="0.7"/>
    <path d="M 252,352 C 258,357 267,362 280,363 C 293,362 302,357 308,352"
      stroke="#e2d9f3" stroke-width="1.5"/>
    <path d="M 264,357 C 270,361 276,363 280,363 C 284,363 290,361 296,357"
      stroke="#a78bfa" stroke-width="0.8" opacity="0.5"/>
  </g>

  <!-- Philtrum -->
  <g stroke="#94a3b8" fill="none" opacity="0.35">
    <path d="M 274,324 C 273,335 272,342 272,348" stroke-width="0.8" stroke-linecap="round"/>
    <path d="M 286,324 C 287,335 288,342 288,348" stroke-width="0.8" stroke-linecap="round"/>
  </g>

  <!-- Center vertical dashed line -->
  <line x1="280" y1="46" x2="280" y2="514"
    stroke="#6366f1" stroke-width="0.8" stroke-dasharray="4 10" opacity="0.45"/>

  <!-- Scan sweep animation -->
  <line x1="280" y1="265" x2="500" y2="265"
    stroke="url(#ringGrad)" stroke-width="1.5" opacity="0">
    <animate attributeName="opacity" values="0;0.6;0" dur="4s" repeatCount="indefinite"/>
    <animateTransform attributeName="transform" type="rotate"
      from="0 280 265" to="360 280 265" dur="4s" repeatCount="indefinite"/>
  </line>

  <!-- HUD labels -->
  <g font-family="'SF Mono','Fira Code',monospace" fill="#818cf8" opacity="0.55">
    <text x="34" y="200" font-size="8" letter-spacing="1">L</text>
    <text x="524" y="200" font-size="8" letter-spacing="1">R</text>
  </g>
  <g font-family="monospace" font-size="7" fill="#4f46e5" opacity="0.4" letter-spacing="0.5">
    <text x="18" y="530">SCAN</text>
    <text x="490" y="530">ALIGN</text>
    <text x="18" y="32">CAM</text>
    <text x="487" y="32">READY</text>
  </g>
</svg>
