<?xml version="1.0" encoding="UTF-8"?>
<svg xmlns="http://www.w3.org/2000/svg" viewBox="0 0 560 440" width="560" height="440">
<defs>
  <!-- BG gradient -->
  <radialGradient id="bgG" cx="50%" cy="46%" r="68%">
    <stop offset="0%" stop-color="#0b1228"/>
    <stop offset="100%" stop-color="#020710"/>
  </radialGradient>

  <!-- Face atmospheric bloom -->
  <radialGradient id="atmG" gradientUnits="userSpaceOnUse" cx="280" cy="205" r="195">
    <stop offset="0%"   stop-color="#3730a3" stop-opacity="0.22"/>
    <stop offset="55%"  stop-color="#4338ca" stop-opacity="0.08"/>
    <stop offset="100%" stop-color="#4338ca" stop-opacity="0"/>
  </radialGradient>

  <!-- Bottom floor glow -->
  <radialGradient id="floorG" gradientUnits="userSpaceOnUse" cx="280" cy="430" r="140">
    <stop offset="0%"   stop-color="#4f46e5" stop-opacity="0.18"/>
    <stop offset="100%" stop-color="#4f46e5" stop-opacity="0"/>
  </radialGradient>

  <!-- Scan line pattern -->
  <pattern id="sL" x="0" y="0" width="560" height="7" patternUnits="userSpaceOnUse">
    <line x1="0" y1="0" x2="560" y2="0" stroke="#818cf8" stroke-width="0.3"/>
  </pattern>

  <!-- Glow filters -->
  <filter id="gXL"  x="-50%" y="-50%" width="200%" height="200%">
    <feGaussianBlur stdDeviation="10" result="b"/>
    <feMerge><feMergeNode in="b"/><feMergeNode in="SourceGraphic"/></feMerge>
  </filter>
  <filter id="gMd"  x="-40%" y="-40%" width="180%" height="180%">
    <feGaussianBlur stdDeviation="5" result="b"/>
    <feMerge><feMergeNode in="b"/><feMergeNode in="SourceGraphic"/></feMerge>
  </filter>
  <filter id="gSm"  x="-60%" y="-60%" width="220%" height="220%">
    <feGaussianBlur stdDeviation="3" result="b"/>
    <feMerge><feMergeNode in="b"/><feMergeNode in="SourceGraphic"/></feMerge>
  </filter>
  <filter id="gPink" x="-40%" y="-40%" width="180%" height="180%">
    <feGaussianBlur stdDeviation="5" result="b"/>
    <feMerge><feMergeNode in="b"/><feMergeNode in="SourceGraphic"/></feMerge>
  </filter>
  <filter id="gHair" x="-30%" y="-30%" width="160%" height="160%">
    <feGaussianBlur stdDeviation="1.8" result="b"/>
    <feMerge><feMergeNode in="b"/><feMergeNode in="SourceGraphic"/></feMerge>
  </filter>
  <filter id="gEye"  x="-80%" y="-80%" width="260%" height="260%">
    <feGaussianBlur stdDeviation="4" result="b"/>
    <feMerge><feMergeNode in="b"/><feMergeNode in="SourceGraphic"/></feMerge>
  </filter>
</defs>

<!-- ── BACKGROUND ── -->
<rect width="560" height="440" fill="url(#bgG)"/>
<rect width="560" height="440" fill="url(#sL)" opacity="0.035"/>

<!-- ── ATMOSPHERIC GLOW ── -->
<ellipse cx="280" cy="205" rx="195" ry="215" fill="url(#atmG)"/>
<ellipse cx="280" cy="430" rx="140" ry="30"  fill="url(#floorG)"/>

<!-- ════════════════════════════════════════════════════ -->
<!--   HAIR — drawn first so face oval overlaps          -->
<!-- ════════════════════════════════════════════════════ -->

<!-- Hair volume silhouette -->
<path d="M 148 130 C 150 82 184 42 230 28 C 254 20 306 20 330 28 C 376 42 410 82 412 130"
  fill="#050c1e" stroke="none"/>

<!-- Central hair strands (bright, glow) -->
<g filter="url(#gHair)">
  <path d="M 252 30 C 249 55 252 82 258 112" fill="none" stroke="#dde4ff" stroke-width="1.3" stroke-linecap="round" opacity="0.75"/>
  <path d="M 263 27 C 261 52 263 78 267 110" fill="none" stroke="#c7d2fe" stroke-width="1.5" stroke-linecap="round" opacity="0.8"/>
  <path d="M 274 25 C 273 50 274 76 274 108" fill="none" stroke="#e0e7ff" stroke-width="1.7" stroke-linecap="round" opacity="0.88"/>
  <path d="M 280 24 C 280 49 280 74 279 106" fill="none" stroke="#e0e7ff" stroke-width="1.8" stroke-linecap="round" opacity="0.92"/>
  <path d="M 286 25 C 288 50 288 76 287 108" fill="none" stroke="#e0e7ff" stroke-width="1.7" stroke-linecap="round" opacity="0.88"/>
  <path d="M 297 27 C 300 52 299 78 295 110" fill="none" stroke="#c7d2fe" stroke-width="1.5" stroke-linecap="round" opacity="0.8"/>
  <path d="M 308 30 C 312 55 310 82 305 112" fill="none" stroke="#dde4ff" stroke-width="1.3" stroke-linecap="round" opacity="0.75"/>
</g>

<!-- Side hair (left) -->
<path d="M 218 33 C 196 48 176 70 165 96 C 157 113 153 132 153 152"
  fill="none" stroke="#a5b4fc" stroke-width="1"  opacity="0.55" stroke-linecap="round"/>
<path d="M 203 47 C 180 63 164 88 156 115 C 150 132 149 152 150 172"
  fill="none" stroke="#a5b4fc" stroke-width="0.8" opacity="0.38" stroke-linecap="round"/>
<path d="M 190 58 C 170 77 158 102 153 130 C 149 152 150 174 152 195"
  fill="none" stroke="#818cf8" stroke-width="0.7" opacity="0.28" stroke-linecap="round"/>

<!-- Side hair (right) -->
<path d="M 342 33 C 364 48 384 70 395 96 C 403 113 407 132 407 152"
  fill="none" stroke="#a5b4fc" stroke-width="1"  opacity="0.55" stroke-linecap="round"/>
<path d="M 357 47 C 380 63 396 88 404 115 C 410 132 411 152 410 172"
  fill="none" stroke="#a5b4fc" stroke-width="0.8" opacity="0.38" stroke-linecap="round"/>
<path d="M 370 58 C 390 77 402 102 407 130 C 411 152 410 174 408 195"
  fill="none" stroke="#818cf8" stroke-width="0.7" opacity="0.28" stroke-linecap="round"/>

<!-- Hairline boundary -->
<path d="M 165 152 C 182 106 212 65 242 42 C 258 33 264 30 280 28 C 296 30 302 33 318 42 C 348 65 378 106 395 152"
  fill="none" stroke="#6366f1" stroke-width="0.7" opacity="0.3"/>

<!-- ════════════════════════════════════════════════════ -->
<!--   EARS                                              -->
<!-- ════════════════════════════════════════════════════ -->

<!-- Left ear outer -->
<path d="M 148 185 C 134 186 124 196 122 213 C 120 230 128 248 142 256 C 152 262 164 260 168 252 C 171 244 167 232 159 222 C 155 216 154 207 157 200 C 159 193 155 188 148 185 Z"
  fill="#060c1c" stroke="#6366f1" stroke-width="1.3" filter="url(#gSm)" opacity="0.85"/>
<!-- Left ear inner helix -->
<path d="M 135 194 C 131 205 132 222 137 234 C 142 244 150 250 156 248"
  fill="none" stroke="#818cf8" stroke-width="0.8" opacity="0.45"/>
<!-- Left ear lobe hint -->
<path d="M 148 256 C 144 263 142 270 145 272"
  fill="none" stroke="#6366f1" stroke-width="0.7" opacity="0.3"/>

<!-- Right ear outer -->
<path d="M 412 185 C 426 186 436 196 438 213 C 440 230 432 248 418 256 C 408 262 396 260 392 252 C 389 244 393 232 401 222 C 405 216 406 207 403 200 C 401 193 405 188 412 185 Z"
  fill="#060c1c" stroke="#6366f1" stroke-width="1.3" filter="url(#gSm)" opacity="0.85"/>
<!-- Right ear inner helix -->
<path d="M 425 194 C 429 205 428 222 423 234 C 418 244 410 250 404 248"
  fill="none" stroke="#818cf8" stroke-width="0.8" opacity="0.45"/>
<path d="M 412 256 C 416 263 418 270 415 272"
  fill="none" stroke="#6366f1" stroke-width="0.7" opacity="0.3"/>

<!-- ════════════════════════════════════════════════════ -->
<!--   FACE OUTLINE                                      -->
<!-- ════════════════════════════════════════════════════ -->

<!-- Face inner fill -->
<path d="M 280 36
  C 348 36 400 70 410 124
  C 418 163 416 200 410 232
  C 398 284 375 330 352 358
  C 330 383 307 397 280 397
  C 253 397 230 383 208 358
  C 185 330 162 284 150 232
  C 144 200 142 163 150 124
  C 160 70 212 36 280 36 Z"
  fill="#080f22" opacity="0.88"/>

<!-- Wide outer glow -->
<path d="M 280 36 C 348 36 400 70 410 124 C 418 163 416 200 410 232 C 398 284 375 330 352 358 C 330 383 307 397 280 397 C 253 397 230 383 208 358 C 185 330 162 284 150 232 C 144 200 142 163 150 124 C 160 70 212 36 280 36 Z"
  fill="none" stroke="#818cf8" stroke-width="7" filter="url(#gXL)" opacity="0.35"/>

<!-- Medium glow -->
<path d="M 280 36 C 348 36 400 70 410 124 C 418 163 416 200 410 232 C 398 284 375 330 352 358 C 330 383 307 397 280 397 C 253 397 230 383 208 358 C 185 330 162 284 150 232 C 144 200 142 163 150 124 C 160 70 212 36 280 36 Z"
  fill="none" stroke="#c4b5fd" stroke-width="3" filter="url(#gMd)" opacity="0.45"/>

<!-- Sharp face line -->
<path d="M 280 36 C 348 36 400 70 410 124 C 418 163 416 200 410 232 C 398 284 375 330 352 358 C 330 383 307 397 280 397 C 253 397 230 383 208 358 C 185 330 162 284 150 232 C 144 200 142 163 150 124 C 160 70 212 36 280 36 Z"
  fill="none" stroke="#e0e7ff" stroke-width="1.7"/>

<!-- Neck -->
<path d="M 252 397 C 246 412 240 425 236 440" stroke="#818cf8" stroke-width="1.2" fill="none" opacity="0.65"/>
<path d="M 308 397 C 314 412 320 425 324 440" stroke="#818cf8" stroke-width="1.2" fill="none" opacity="0.65"/>
<path d="M 236 440 Q 280 433 324 440" stroke="#6366f1" stroke-width="0.8" fill="none" opacity="0.4"/>

<!-- ════════════════════════════════════════════════════ -->
<!--   EYEBROWS                                          -->
<!-- ════════════════════════════════════════════════════ -->

<!-- Left brow glow -->
<path d="M 185 180 C 202 170 222 165 252 168"
  fill="none" stroke="#818cf8" stroke-width="5" stroke-linecap="round"
  filter="url(#gMd)" opacity="0.4"/>
<!-- Left brow line -->
<path d="M 185 180 C 202 170 222 165 252 168"
  fill="none" stroke="#c4b5fd" stroke-width="2.8" stroke-linecap="round"/>

<!-- Right brow glow -->
<path d="M 308 168 C 338 165 358 170 375 180"
  fill="none" stroke="#818cf8" stroke-width="5" stroke-linecap="round"
  filter="url(#gMd)" opacity="0.4"/>
<path d="M 308 168 C 338 165 358 170 375 180"
  fill="none" stroke="#c4b5fd" stroke-width="2.8" stroke-linecap="round"/>

<!-- ════════════════════════════════════════════════════ -->
<!--   EYES                                              -->
<!-- ════════════════════════════════════════════════════ -->

<!-- LEFT EYE -->
<!-- Socket ambient fill -->
<path d="M 183 196 Q 215 180 250 196 Q 215 214 183 196 Z"
  fill="#4338ca" opacity="0.08" filter="url(#gEye)"/>
<!-- Upper lid glow -->
<path d="M 183 196 Q 215 180 250 196"
  fill="none" stroke="#818cf8" stroke-width="4" stroke-linecap="round"
  filter="url(#gMd)" opacity="0.4"/>
<!-- Upper lid sharp -->
<path d="M 183 196 Q 215 180 250 196"
  fill="none" stroke="#e0e7ff" stroke-width="1.7" stroke-linecap="round"/>
<!-- Lower lid -->
<path d="M 183 196 Q 215 212 250 196"
  fill="none" stroke="#818cf8" stroke-width="1.1" stroke-linecap="round" opacity="0.6"/>

<!-- LEFT iris bloom -->
<circle cx="215" cy="195" r="16" fill="#4338ca" opacity="0.14" filter="url(#gEye)"/>
<!-- LEFT iris ring glow -->
<circle cx="215" cy="195" r="14" fill="none" stroke="#6366f1" stroke-width="4"
  filter="url(#gSm)" opacity="0.4"/>
<!-- LEFT iris ring sharp -->
<circle cx="215" cy="195" r="14" fill="none" stroke="#818cf8" stroke-width="1.3" opacity="0.9"/>
<!-- LEFT iris fill -->
<circle cx="215" cy="195" r="12" fill="#130f35"/>
<!-- LEFT pupil -->
<circle cx="215" cy="195" r="5.5" fill="#07091a"/>
<!-- LEFT catchlight -->
<circle cx="220" cy="189" r="2.5" fill="white" opacity="0.9"/>
<circle cx="210" cy="191" r="1"   fill="white" opacity="0.45"/>

<!-- Left lashes -->
<g stroke="#c4b5fd" stroke-width="0.8" stroke-linecap="round" opacity="0.55">
  <line x1="188" y1="194" x2="185" y2="188"/>
  <line x1="197" y1="188" x2="195" y2="182"/>
  <line x1="207" y1="184" x2="206" y2="178"/>
  <line x1="216" y1="182" x2="216" y2="176"/>
  <line x1="225" y1="184" x2="226" y2="178"/>
  <line x1="235" y1="188" x2="237" y2="182"/>
  <line x1="244" y1="193" x2="246" y2="188"/>
</g>

<!-- RIGHT EYE -->
<path d="M 310 196 Q 345 180 377 196 Q 345 214 310 196 Z"
  fill="#4338ca" opacity="0.08" filter="url(#gEye)"/>
<path d="M 310 196 Q 345 180 377 196"
  fill="none" stroke="#818cf8" stroke-width="4" stroke-linecap="round"
  filter="url(#gMd)" opacity="0.4"/>
<path d="M 310 196 Q 345 180 377 196"
  fill="none" stroke="#e0e7ff" stroke-width="1.7" stroke-linecap="round"/>
<path d="M 310 196 Q 345 212 377 196"
  fill="none" stroke="#818cf8" stroke-width="1.1" stroke-linecap="round" opacity="0.6"/>

<circle cx="345" cy="195" r="16" fill="#4338ca" opacity="0.14" filter="url(#gEye)"/>
<circle cx="345" cy="195" r="14" fill="none" stroke="#6366f1" stroke-width="4"
  filter="url(#gSm)" opacity="0.4"/>
<circle cx="345" cy="195" r="14" fill="none" stroke="#818cf8" stroke-width="1.3" opacity="0.9"/>
<circle cx="345" cy="195" r="12" fill="#130f35"/>
<circle cx="345" cy="195" r="5.5" fill="#07091a"/>
<circle cx="350" cy="189" r="2.5" fill="white" opacity="0.9"/>
<circle cx="340" cy="191" r="1"   fill="white" opacity="0.45"/>

<!-- Right lashes -->
<g stroke="#c4b5fd" stroke-width="0.8" stroke-linecap="round" opacity="0.55">
  <line x1="315" y1="194" x2="312" y2="188"/>
  <line x1="324" y1="188" x2="322" y2="182"/>
  <line x1="334" y1="184" x2="333" y2="178"/>
  <line x1="343" y1="182" x2="343" y2="176"/>
  <line x1="352" y1="184" x2="353" y2="178"/>
  <line x1="362" y1="188" x2="364" y2="182"/>
  <line x1="371" y1="193" x2="373" y2="188"/>
</g>

<!-- ════════════════════════════════════════════════════ -->
<!--   NOSE                                              -->
<!-- ════════════════════════════════════════════════════ -->

<!-- Bridge lines (from inner brow area downward) -->
<path d="M 220 200 C 217 228 216 252 218 268"
  stroke="#818cf8" stroke-width="0.9" fill="none" opacity="0.4"/>
<path d="M 340 200 C 343 228 344 252 342 268"
  stroke="#818cf8" stroke-width="0.9" fill="none" opacity="0.4"/>

<!-- Nose base arc (alar wings) -->
<path d="M 218 268 C 218 277 222 282 232 284 Q 256 290 280 290 Q 304 290 328 284 C 338 282 342 277 342 268"
  fill="none" stroke="#818cf8" stroke-width="1.1" opacity="0.42"/>

<!-- Nostril curves -->
<path d="M 228 282 C 226 289 232 294 242 292 C 248 291 250 286 246 282"
  fill="none" stroke="#818cf8" stroke-width="0.8" opacity="0.38"/>
<path d="M 332 282 C 334 289 328 294 318 292 C 312 291 310 286 314 282"
  fill="none" stroke="#818cf8" stroke-width="0.8" opacity="0.38"/>

<!-- ════════════════════════════════════════════════════ -->
<!--   LIPS                                              -->
<!-- ════════════════════════════════════════════════════ -->

<!-- Upper lip outer glow -->
<path d="M 248 313 Q 262 302 280 300 Q 298 302 312 313"
  fill="none" stroke="#818cf8" stroke-width="4.5" stroke-linecap="round"
  filter="url(#gMd)" opacity="0.28"/>
<!-- Upper lip sharp -->
<path d="M 248 313 Q 262 302 280 300 Q 298 302 312 313"
  fill="none" stroke="#e0e7ff" stroke-width="1.6" stroke-linecap="round"/>
<!-- Center mouth line -->
<path d="M 248 313 Q 280 317 312 313"
  fill="none" stroke="#e0e7ff" stroke-width="1.5" stroke-linecap="round"/>
<!-- Lower lip glow -->
<path d="M 248 313 Q 280 332 312 313"
  fill="none" stroke="#818cf8" stroke-width="3.5" stroke-linecap="round"
  filter="url(#gMd)" opacity="0.2"/>
<!-- Lower lip sharp -->
<path d="M 248 313 Q 280 332 312 313"
  fill="none" stroke="#c4b5fd" stroke-width="1.3" stroke-linecap="round"/>

<!-- ════════════════════════════════════════════════════ -->
<!--   SCAN RING (pink/magenta dashed oval)               -->
<!-- ════════════════════════════════════════════════════ -->

<!-- Outer scan ring glow -->
<ellipse cx="280" cy="212" rx="170" ry="198" fill="none"
  stroke="#ec4899" stroke-width="5" stroke-dasharray="14 7"
  filter="url(#gPink)" opacity="0.45"/>
<!-- Outer scan ring sharp -->
<ellipse cx="280" cy="212" rx="170" ry="198" fill="none"
  stroke="#f472b6" stroke-width="1.6" stroke-dasharray="14 7" opacity="0.88">
  <animateTransform attributeName="transform" type="rotate"
    from="0 280 212" to="360 280 212" dur="18s" repeatCount="indefinite"/>
</ellipse>

<!-- Inner scan ring (faint) -->
<ellipse cx="280" cy="212" rx="154" ry="180" fill="none"
  stroke="#f9a8d4" stroke-width="0.8" stroke-dasharray="5 12" opacity="0.35"/>

<!-- ════════════════════════════════════════════════════ -->
<!--   HUD CORNER BRACKETS                               -->
<!-- ════════════════════════════════════════════════════ -->
<g stroke="#f8fafc" stroke-width="2.5" fill="none" opacity="0.85">
  <path d="M  80  42 L  80  22 L 100  22"/>
  <path d="M 460  22 L 480  22 L 480  42"/>
  <path d="M  80 398 L  80 418 L 100 418"/>
  <path d="M 460 418 L 480 418 L 480 398"/>
</g>
<!-- Inner bracket ticks -->
<g stroke="#c7d2fe" stroke-width="1.3" fill="none" opacity="0.4">
  <path d="M  88  48 L  88  30 L 106  30"/>
  <path d="M 454  30 L 472  30 L 472  48"/>
  <path d="M  88 392 L  88 410 L 106 410"/>
  <path d="M 454 410 L 472 410 L 472 392"/>
</g>

<!-- ════════════════════════════════════════════════════ -->
<!--   CROSSHAIR                                         -->
<!-- ════════════════════════════════════════════════════ -->

<!-- Vertical center axis -->
<line x1="280" y1="36" x2="280" y2="400"
  stroke="#c4b5fd" stroke-width="0.5" stroke-dasharray="4 7" opacity="0.18"/>
<!-- Horizontal eye-level -->
<line x1="148" y1="195" x2="412" y2="195"
  stroke="#818cf8" stroke-width="0.5" stroke-dasharray="3 8" opacity="0.16"/>
<!-- Center micro-cross -->
<g stroke="#c4b5fd" stroke-width="0.8" opacity="0.4">
  <line x1="274" y1="215" x2="286" y2="215"/>
  <line x1="280" y1="209" x2="280" y2="221"/>
</g>

<!-- Eye-level angle brackets -->
<g stroke="#67e8f9" stroke-width="0.7" fill="none" opacity="0.22">
  <path d="M 138 188 L 148 188 L 148 198"/>
  <path d="M 422 188 L 412 188 L 412 198"/>
</g>

<!-- ════════════════════════════════════════════════════ -->
<!--   SMIL ANIMATIONS                                   -->
<!-- ════════════════════════════════════════════════════ -->

<!-- Outer ring pulse -->
<ellipse cx="280" cy="212" rx="172" ry="200" fill="none"
  stroke="#ec4899" stroke-width="1.2" opacity="0">
  <animate attributeName="opacity" values="0;0.3;0" dur="3s" repeatCount="indefinite"/>
  <animate attributeName="rx"      values="170;180;170" dur="3s" repeatCount="indefinite"/>
  <animate attributeName="ry"      values="198;210;198" dur="3s" repeatCount="indefinite"/>
</ellipse>

<!-- Scan sweep line -->
<defs>
  <linearGradient id="sweepG" x1="0" y1="0" x2="0" y2="1">
    <stop offset="0%"   stop-color="#818cf8" stop-opacity="0"/>
    <stop offset="50%"  stop-color="#c4b5fd" stop-opacity="1"/>
    <stop offset="100%" stop-color="#818cf8" stop-opacity="0"/>
  </linearGradient>
</defs>
<rect x="148" y="36" width="264" height="5" fill="url(#sweepG)" opacity="0">
  <animate attributeName="y"       values="36;400;36"   dur="7s" repeatCount="indefinite" calcMode="linear"/>
  <animate attributeName="opacity" values="0;0;0.2;0.2;0" keyTimes="0;0.05;0.15;0.85;1" dur="7s" repeatCount="indefinite"/>
</rect>

<!-- Eye iris subtle pulse -->
<circle cx="215" cy="195" r="14" fill="none" stroke="#6366f1" stroke-width="1" opacity="0">
  <animate attributeName="opacity" values="0;0.6;0" dur="4s" begin="0.5s" repeatCount="indefinite"/>
</circle>
<circle cx="345" cy="195" r="14" fill="none" stroke="#6366f1" stroke-width="1" opacity="0">
  <animate attributeName="opacity" values="0;0.6;0" dur="4s" begin="0.5s" repeatCount="indefinite"/>
</circle>

</svg>
