<svg xmlns="http://www.w3.org/2000/svg" viewBox="0 0 220 260" width="220" height="260" aria-hidden="true">
  <defs>
    <linearGradient id="guideFill" x1="0" x2="0" y1="0" y2="1">
      <stop offset="0%" stop-color="rgba(255,255,255,0.05)"/>
      <stop offset="100%" stop-color="rgba(255,255,255,0.01)"/>
    </linearGradient>
    <filter id="guideGlow" x="-20%" y="-20%" width="140%" height="140%">
      <feGaussianBlur stdDeviation="2.4" result="blur"/>
      <feMerge>
        <feMergeNode in="blur"/>
        <feMergeNode in="SourceGraphic"/>
      </feMerge>
    </filter>
  </defs>
  <rect width="220" height="260" rx="22" fill="#080814"/>
  <ellipse cx="110" cy="118" rx="79" ry="100" fill="none" stroke="rgba(255,255,255,0.08)" stroke-width="1.4" stroke-dasharray="4 8"/>
  <path d="M110 20 C90 20 72 28 60 44 C48 60 42 82 42 109 C42 138 48 164 60 184 C72 204 89 216 110 216 C131 216 148 204 160 184 C172 164 178 138 178 109 C178 82 172 60 160 44 C148 28 130 20 110 20Z"
    fill="url(#guideFill)" stroke="rgba(248,250,252,0.76)" stroke-width="2.2" filter="url(#guideGlow)"/>
  <path d="M60 118 H160" fill="none" stroke="rgba(255,255,255,0.08)" stroke-width="1.1" stroke-dasharray="4 8"/>
  <path d="M110 34 V214" fill="none" stroke="rgba(255,255,255,0.08)" stroke-width="1.1" stroke-dasharray="4 8"/>
  <path d="M110 29 C93 29 78 36 68 49 C56 64 50 84 50 109 C50 134 55 157 66 176 C76 193 91 203 110 203 C129 203 144 193 154 176 C165 157 170 134 170 109 C170 84 164 64 152 49 C142 36 127 29 110 29Z"
    fill="rgba(255,255,255,0.01)" stroke="rgba(241,245,249,0.88)" stroke-width="1.9"/>
  <path d="M58 90 Q58 77 52 77 Q48 82 49 92 Q50 103 56 108" fill="none" stroke="rgba(148,163,184,0.26)" stroke-width="1.35" stroke-linecap="round"/>
  <path d="M162 90 Q162 77 168 77 Q172 82 171 92 Q170 103 164 108" fill="none" stroke="rgba(148,163,184,0.26)" stroke-width="1.35" stroke-linecap="round"/>
  <path d="M77 78 Q91 71 104 74" fill="none" stroke="rgba(241,245,249,0.78)" stroke-width="2" stroke-linecap="round"/>
  <path d="M116 74 Q129 71 143 78" fill="none" stroke="rgba(241,245,249,0.78)" stroke-width="2" stroke-linecap="round"/>
  <path d="M72 105 Q84 94 98 100" fill="none" stroke="rgba(241,245,249,0.9)" stroke-width="1.8" stroke-linecap="round"/>
  <path d="M72 105 Q84 112 97 106" fill="none" stroke="rgba(241,245,249,0.5)" stroke-width="1.2" stroke-linecap="round"/>
  <path d="M122 100 Q136 94 148 105" fill="none" stroke="rgba(241,245,249,0.9)" stroke-width="1.8" stroke-linecap="round"/>
  <path d="M123 106 Q136 112 148 105" fill="none" stroke="rgba(241,245,249,0.5)" stroke-width="1.2" stroke-linecap="round"/>
  <circle cx="85.5" cy="103.5" r="2.1" fill="rgba(226,232,240,0.65)"/>
  <circle cx="134.5" cy="103.5" r="2.1" fill="rgba(226,232,240,0.65)"/>
  <path d="M108 104 C104 120 100 138 98 155 C97 166 101 172 110 172 C119 172 123 166 122 155 C120 138 116 120 112 104" fill="none" stroke="rgba(148,163,184,0.78)" stroke-width="1.9" stroke-linecap="round"/>
  <path d="M101 176 Q110 180 119 176" fill="none" stroke="rgba(148,163,184,0.48)" stroke-width="1.25" stroke-linecap="round"/>
  <path d="M86 184 Q98 194 110 194 Q122 194 134 184" fill="none" stroke="rgba(241,245,249,0.9)" stroke-width="1.8" stroke-linecap="round"/>
  <path d="M90 183 Q100 177 110 178 Q120 177 130 183" fill="none" stroke="rgba(241,245,249,0.44)" stroke-width="1.1" stroke-linecap="round"/>
  <path d="M91 194 Q100 201 110 201 Q120 201 129 194" fill="none" stroke="rgba(148,163,184,0.38)" stroke-width="1.35" stroke-linecap="round"/>
  <path d="M76 121 Q79 149 92 177" fill="none" stroke="rgba(148,163,184,0.12)" stroke-width="1.1" stroke-linecap="round"/>
  <path d="M144 121 Q141 149 128 177" fill="none" stroke="rgba(148,163,184,0.12)" stroke-width="1.1" stroke-linecap="round"/>
  <path d="M84 66 Q110 58 136 66" fill="none" stroke="rgba(255,255,255,0.05)" stroke-width="1" stroke-dasharray="2 6"/>
  <path d="M72 110 Q110 96 148 110" fill="none" stroke="rgba(255,255,255,0.05)" stroke-width="1" stroke-dasharray="2 6"/>
  <path d="M87 184 Q110 171 133 184" fill="none" stroke="rgba(255,255,255,0.05)" stroke-width="1" stroke-dasharray="2 6"/>
  <path d="M84 214 Q94 203 99 198" fill="none" stroke="rgba(148,163,184,0.3)" stroke-width="1.25" stroke-linecap="round"/>
  <path d="M136 214 Q126 203 121 198" fill="none" stroke="rgba(148,163,184,0.3)" stroke-width="1.25" stroke-linecap="round"/>
</svg>
